# xmcd
#
# Track frame offsets: 
#        150
#        11330
#        24185
#        36143
#        46568
#        57979
#        69889
#        80544
#        93708
#        103575
#        114798
#        127610
#        141282
#        155138
#        166453
#        178802
#        191290
#        200385
#        212736
#        224844
#        238761
#        250217
#        264120
#        276123
#        289946
#        303941
#        316592
#        328328
#
# Disc length: 4533 seconds
#
# Revision: 0
# Processed by: cddbd v1.5.1PL2 Copyright (c) Steve Scherf et al.
# Submitted via: ExactAudioCopy v0.95b3
#
DISCID=8511b31c
DTITLE=Va  - The Complete Stax-Volt Singles- 1959-1968 [CD3]
DYEAR=1900
DGENRE=
TTITLE0=Various Artist - Otis Redding \\ Pain In My Heart
TTITLE1=Various Artist - Carla Thomas \\ Gee Whiz It's Christmas
TTITLE2=Various Artist - Booker T. and The MG's \\ Mo' Onions
TTITLE3=Various Artist - Floyd Nwman \\ Frog Stomp
TTITLE4=Various Artist - Rufus Thomas \\ Can Your Monkey Do The Dog
TTITLE5=Various Artist - Bobby Marchan \\ You Won't Do Right
TTITLE6=Various Artist - The Drapels \\ Wondering (When My Love Is Coming Hom
TTITLE6=e)
TTITLE7=Various Artist - Deanie Parker \\ Each Step I Take
TTITLE8=Various Artist - The Van-Dells \\ The Honey Dripper
TTITLE9=Various Artist - William Bell \\ Who Will It Be Tomorrow
TTITLE10=Various Artist - Otis Redding \\ Come To Me
TTITLE11=Various Artist - Otis Redding \\ Don't Leave Me This Way
TTITLE12=Various Artist - Eddie Jefferson \\ I Don't Want You Anymore
TTITLE13=Various Artist - The Cobras \\ Restless
TTITLE14=Various Artist - Rufus Thomas \\ Somebody Stole My Dog
TTITLE15=Various Artist - Barbara and The Browns \\ Big Party
TTITLE16=Various Artist - Rufus and Carla \\ That's Really Some Good
TTITLE17=Various Artist - Rufus and Carla \\ Night Time Is The Right Time
TTITLE18=Various Artist - Otis Redding \\ Security
TTITLE19=Various Artist - Oscar Mack \\ Dream Girl
TTITLE20=Various Artist - Dorothy Williams \\ Closer To My Baby
TTITLE21=Various Artist - Carla Thomas \\ I've Got No Time To Lose
TTITLE22=Various Artist - The Drapels \\ Young Man
TTITLE23=Various Artist - Booker T. and The MG's \\ Soul Dressing
TTITLE24=Various Artist - Wendy Rene \\ After Laughter (Comes Tears)
TTITLE25=Various Artist - Ivory Joe Hunter \\ Can't Explain How It Happened
TTITLE26=Various Artist - Mar-Keys \\ Bush Bash
TTITLE27=Various Artist - The Fleets \\ Please Return To Me
EXTD=
EXTT0=
EXTT1=
EXTT2=
EXTT3=
EXTT4=
EXTT5=
EXTT6=
EXTT7=
EXTT8=
EXTT9=
EXTT10=
EXTT11=
EXTT12=
EXTT13=
EXTT14=
EXTT15=
EXTT16=
EXTT17=
EXTT18=
EXTT19=
EXTT20=
EXTT21=
EXTT22=
EXTT23=
EXTT24=
EXTT25=
EXTT26=
EXTT27=
PLAYORDER=
